<svg xmlns="http://www.w3.org/2000/svg" viewBox="0 0 64 64">
  <defs>
    <linearGradient id="bgGradient" x1="0%" y1="0%" x2="100%" y2="100%">
      <stop offset="0%" stop-color="#3b82f6" />
      <stop offset="100%" stop-color="#1d4ed8" />
    </linearGradient>
    <linearGradient id="toothGradient" x1="0%" y1="0%" x2="0%" y2="100%">
      <stop offset="0%" stop-color="#ffffff" />
      <stop offset="100%" stop-color="#e0f2fe" />
    </linearGradient>
  </defs>
  <rect width="64" height="64" rx="14" fill="url(#bgGradient)" />
  <path
    d="M32 14c8 0 14 5.8 14 13.4 0 3.4-1 6.2-2.9 8.1-1.4 1.4-2.4 3.5-2.4 6.1 0 4.4-1.1 8.4-3.2 11.4-1.1 1.6-3.5 1.4-4.5-0.4-1.8-3.2-3.1-6.4-3.6-10.1-0.2-1.3-2-1.3-2.2 0-0.5 3.6-1.8 6.9-3.6 10.1-1 1.8-3.4 2-4.5 0.4-2.1-3-3.2-7-3.2-11.4 0-2.6-1-4.7-2.4-6.1-1.9-1.9-2.9-4.7-2.9-8.1C18 19.8 24 14 32 14z"
    fill="url(#toothGradient)"
  />
  <path
    d="M36 22c1.7 2.3 2.6 4.7 2.6 7.2 0 1-0.3 1.9-0.9 2.7"
    stroke="#3b82f6"
    stroke-width="2"
    stroke-linecap="round"
    fill="none"
    opacity="0.6"
  />
</svg>

